<svg version="1.1" xmlns="http://www.w3.org/2000/svg" xmlns:xlink="http://www.w3.org/1999/xlink" width="105.59064" height="107.69018" viewBox="0,0,105.59064,107.69018"><g transform="translate(-187.20468,-126.15491)"><g data-paper-data="{&quot;isPaintingLayer&quot;:true}" fill-rule="nonzero" stroke="#000000" stroke-width="4" stroke-linejoin="miter" stroke-miterlimit="10" stroke-dasharray="" stroke-dashoffset="0" style="mix-blend-mode: normal"><path d="M233.65041,172.14466l-30.27017,-28.2063" fill="none" stroke-linecap="round"/><path d="M240.08317,128.15491l-0.00985,41.37485" fill="none" stroke-linecap="round"/><path d="M277.1664,144.36903l-31.05047,27.34495" fill="none" stroke-linecap="round"/><path d="M290.79532,178.62642l-41.37412,0.24506" fill="none" stroke-linecap="round"/><path d="M205.41613,216.10241l27.78066,-30.66126" fill="none" stroke-linecap="round"/><path d="M189.20468,179.16975l41.37095,-0.56817" fill="none" stroke-linecap="round"/><path d="M247.54804,186.27306l30.27017,28.2063" fill="none" stroke-linecap="round"/><path d="M240.07332,231.84509l0.00985,-41.37485" fill="none" stroke-linecap="round"/><path d="M247.59412,180.29457c0,4.26014 -3.36497,7.71366 -7.51588,7.71366c-4.1509,0 -7.51588,-3.45352 -7.51588,-7.71366c0,-4.26014 3.36497,-7.71366 7.51588,-7.71366c4.1509,0 7.51588,3.45352 7.51588,7.71366z" fill="#000000" stroke-linecap="butt"/></g></g></svg>