<svg version="1.1" xmlns="http://www.w3.org/2000/svg" xmlns:xlink="http://www.w3.org/1999/xlink" width="65.86393" height="79.83321" viewBox="0,0,65.86393,79.83321"><g transform="translate(-410.47776,-190.8242)"><g data-paper-data="{&quot;isPaintingLayer&quot;:true}" fill-rule="nonzero" stroke-linejoin="miter" stroke-miterlimit="10" stroke-dasharray="" stroke-dashoffset="0" style="mix-blend-mode: normal"><path d="M412.47777,268.65741v-75.83321h61.86393v75.83321z" fill="none" stroke="#ffffff" stroke-width="4" stroke-linecap="butt"/><path d="M443.55227,193.39437l0.28509,72.98234" fill="none" stroke="#ffffff" stroke-width="4" stroke-linecap="round"/><path d="M441.71018,234.45791c0,2.28301 -1.85075,4.13377 -4.13377,4.13377c-2.28301,0 -4.13376,-1.85075 -4.13376,-4.13377c0,-2.28301 1.85075,-4.13376 4.13376,-4.13376c2.28301,0 4.13377,1.85075 4.13377,4.13376z" fill="#ffde00" stroke="none" stroke-width="0" stroke-linecap="butt"/><path d="M453.83736,234.61142c0,2.28302 -1.85075,4.13376 -4.13377,4.13376c-2.28301,0 -4.13376,-1.85075 -4.13376,-4.13376c0,-2.28302 1.85075,-4.13377 4.13376,-4.13377c2.28301,0 4.13377,1.85075 4.13377,4.13377z" fill="#ffde00" stroke="none" stroke-width="0" stroke-linecap="butt"/></g></g></svg>