<svg version="1.1" xmlns="http://www.w3.org/2000/svg" xmlns:xlink="http://www.w3.org/1999/xlink" width="926.9937" height="606.05295" viewBox="0,0,926.9937,606.05295"><defs><radialGradient cx="319.14649" cy="309.87994" r="225.79215" gradientTransform="translate(-42.88328,-153.88406) scale(0.45936,0.45936)" gradientUnits="userSpaceOnUse" id="color-1"><stop offset="0" stop-color="#808080"/><stop offset="1" stop-color="#ffffff"/></radialGradient><radialGradient cx="319.14649" cy="309.87994" r="225.79215" gradientTransform="translate(-42.88328,-153.88406) scale(0.45936,0.45936)" gradientUnits="userSpaceOnUse" id="color-2"><stop offset="0" stop-color="#808080"/><stop offset="1" stop-color="#ffffff"/></radialGradient></defs><g transform="translate(40.28112,0.56593)"><g data-paper-data="{&quot;isPaintingLayer&quot;:true}" stroke-dasharray="" stroke-dashoffset="0" style="mix-blend-mode: normal"><path d="" fill="none" fill-rule="nonzero" stroke="#ff7777" stroke-width="4" stroke-linecap="butt" stroke-linejoin="miter" stroke-miterlimit="10"/><path d="M60.06562,600.06846l-93.31734,-189.46915l820.54717,-404.13584l93.31734,189.46915c0,0 -179.83139,250.78727 -317.93903,318.80803c-135.35257,66.66384 -502.60814,85.32781 -502.60814,85.32781z" fill="none" fill-rule="nonzero" stroke="#ff7777" stroke-width="10.5" stroke-linecap="butt" stroke-linejoin="miter" stroke-miterlimit="10"/><path d="M285.0895,244.10797c0,0 -10.67272,-122.06923 -13.40584,-146.17388c-0.31711,-2.79687 -1.17641,-1.82633 0.36597,-0.41977c27.07127,24.68766 108.99184,98.92192 108.99184,98.92192z" fill="none" fill-rule="nonzero" stroke="#ffffff" stroke-width="10" stroke-linecap="butt" stroke-linejoin="miter" stroke-miterlimit="10"/><path d="M115.90383,199.90434c-18.67961,-18.90899 -57.55312,-58.25984 -66.94546,-67.76751c-4.0081,-4.05732 -3.22544,-12.69954 1.38522,-17.25427c9.59415,-9.47776 45.65374,-45.09995 64.72177,-63.93669c7.21146,-7.12397 15.99839,-7.79206 22.19148,-1.52291c18.16981,18.39292 55.16684,55.84423 65.06497,65.86394c4.77299,4.8316 5.78525,13.75492 -0.3547,19.8204c-18.69096,18.46423 -57.68502,56.98528 -67.38678,66.56936c-4.2857,4.23371 -12.52703,4.45267 -18.67649,-1.7723z" fill="none" fill-rule="nonzero" stroke="#ff7979" stroke-width="10" stroke-linecap="butt" stroke-linejoin="miter" stroke-miterlimit="10"/><path d="M382.1973,74.44441c15.74858,2.54834 26.54018,16.82047 24.10371,31.8777c-2.43646,15.05719 -17.17839,25.1976 -32.92697,22.64926c-15.74858,-2.54834 -26.54017,-16.82046 -24.10371,-31.87769c2.43646,-15.05719 17.17839,-25.19761 32.92696,-22.64926z" fill="none" fill-rule="nonzero" stroke="#ffe200" stroke-width="11" stroke-linecap="butt" stroke-linejoin="miter" stroke-miterlimit="10"/><path d="M375.70654,71.15591c0,0 6.63766,-46.86686 7.69425,-54.32709c0.27409,-1.93531 2.72066,-3.29955 4.66373,-2.98515c4.59927,0.74422 23.22878,3.75875 23.22878,3.75875" fill="none" fill-rule="nonzero" stroke="#ffe200" stroke-width="11" stroke-linecap="round" stroke-linejoin="miter" stroke-miterlimit="10"/><path d="M382.75234,42.08051l23.95289,3.87592" fill="none" fill-rule="nonzero" stroke="#ffe200" stroke-width="11" stroke-linecap="round" stroke-linejoin="miter" stroke-miterlimit="10"/><text transform="translate(23.6055,262.12912) scale(2.78587,2.78587)" font-size="40" xml:space="preserve" fill="#ffc700" fill-rule="nonzero" stroke="#ffc900" stroke-width="3" stroke-linecap="butt" stroke-linejoin="miter" stroke-miterlimit="10" stroke-dasharray="" stroke-dashoffset="0" font-family="Sans Serif" font-weight="normal" text-anchor="start" style="mix-blend-mode: normal"><tspan x="0" dy="0">Key</tspan></text><text transform="translate(93.35432,334.99637) scale(2.17694,2.17694)" font-size="40" xml:space="preserve" fill="url(#color-1)" fill-rule="nonzero" stroke="url(#color-2)" stroke-width="5" stroke-linecap="butt" stroke-linejoin="miter" stroke-miterlimit="10" stroke-dasharray="" stroke-dashoffset="0" font-family="Handwriting" font-weight="normal" text-anchor="start" style="mix-blend-mode: normal"><tspan x="0" dy="0">platformer</tspan></text><text transform="translate(93.35432,334.99637) scale(2.17694,2.17694)" font-size="40" xml:space="preserve" fill="#ff7777" fill-rule="nonzero" stroke="#ff7979" stroke-width="3" stroke-linecap="butt" stroke-linejoin="miter" stroke-miterlimit="10" stroke-dasharray="" stroke-dashoffset="0" font-family="Handwriting" font-weight="normal" text-anchor="start" style="mix-blend-mode: normal"><tspan x="0" dy="0">platformer</tspan></text><path d="M87.28061,90.00054c1.72073,6.42159 -2.08991,13.02194 -8.51144,14.74257l-28.49179,7.63422c-6.42153,1.72062 -13.02192,-2.09018 -14.74263,-8.51177l-15.95373,-59.53809c-1.72073,-6.42159 2.08991,-13.02194 8.51144,-14.74257l28.49179,-7.63422c6.42153,-1.72062 13.02192,2.09017 14.74264,8.51175z" fill="none" fill-rule="evenodd" stroke="#ffffff" stroke-width="16.97" stroke-linecap="round" stroke-linejoin="round" stroke-miterlimit="1.5"/><path d="M87.28061,90.00054c1.72073,6.42159 -2.08991,13.02194 -8.51144,14.74257l-28.49179,7.63422c-6.42153,1.72062 -13.02192,-2.09018 -14.74263,-8.51177l-15.95373,-59.53809c-1.72073,-6.42159 2.08991,-13.02194 8.51144,-14.74257l28.49179,-7.63422c6.42153,-1.72062 13.02192,2.09017 14.74264,8.51175z" fill="#000000" fill-rule="evenodd" stroke="none" stroke-width="1" stroke-linecap="round" stroke-linejoin="round" stroke-miterlimit="1.5"/><path d="M41.04587,103.74928l-16.63822,-62.09432l41.39669,-11.09242l16.63822,62.09432z" fill="#ffffff" fill-rule="evenodd" stroke="none" stroke-width="1" stroke-linecap="round" stroke-linejoin="round" stroke-miterlimit="1.5"/><path d="M65.7458,58.47895v9.08539" fill="none" fill-rule="evenodd" stroke="#000000" stroke-width="7" stroke-linecap="round" stroke-linejoin="round" stroke-miterlimit="1.5"/><path d="M41.10215,64.58155v-9.08539" fill="none" fill-rule="evenodd" stroke="#000000" stroke-width="7" stroke-linecap="round" stroke-linejoin="round" stroke-miterlimit="1.5"/><path d="M61.80009,77.18066c-5.86259,3.38478 -13.36994,1.37318 -16.7547,-4.48943" fill="none" fill-rule="evenodd" stroke="#000000" stroke-width="7" stroke-linecap="round" stroke-linejoin="round" stroke-miterlimit="1.5"/></g></g></svg>