<svg version="1.1" xmlns="http://www.w3.org/2000/svg" xmlns:xlink="http://www.w3.org/1999/xlink" width="125.79462" height="125.79462" viewBox="0,0,125.79462,125.79462"><g transform="translate(-177.10269,-117.10269)"><g data-paper-data="{&quot;isPaintingLayer&quot;:true}" fill-rule="nonzero" stroke-linecap="butt" stroke-linejoin="miter" stroke-miterlimit="10" stroke-dasharray="" stroke-dashoffset="0" style="mix-blend-mode: normal"><path d="M266.37059,117.10269c2.64366,16.92599 17.28659,29.87622 34.95423,29.87622c0.26275,0 0.52493,-0.00291 0.78621,-0.00854v72.11161c-12.88492,2.31187 -23.34919,11.59991 -27.3443,23.81532h-66.65617c-4.60699,-13.03437 -15.7617,-22.99988 -30.13429,-23.94593l-0.87358,-68.74906c15.65191,-3.17715 27.55171,-16.68686 28.26946,-33.09949z" data-paper-data="{&quot;index&quot;:null}" fill="#000000" stroke="none" stroke-width="NaN"/><path d="M266.73136,188.64833c-19.53964,0 -35.37972,-15.84008 -35.37972,-35.37972c0,-19.53964 15.84008,-35.37972 35.37972,-35.37972c19.53964,0 35.37972,15.84008 35.37972,35.37972c0,19.53964 -15.84008,35.37972 -35.37972,35.37972z" data-paper-data="{&quot;index&quot;:null}" fill="#000000" stroke="none" stroke-width="0.5"/><path d="M212.48255,187.86225c-19.53964,0 -35.37972,-15.84008 -35.37972,-35.37972c0,-19.53964 15.84008,-35.37972 35.37972,-35.37972c19.53964,0 35.37972,15.84008 35.37972,35.37972c0,19.53964 -15.84008,35.37972 -35.37972,35.37972z" data-paper-data="{&quot;index&quot;:null}" fill="#000000" stroke="none" stroke-width="0.5"/><path d="M267.51759,242.89727c-19.53964,0 -35.37972,-15.84008 -35.37972,-35.37972c0,-19.53964 15.84008,-35.37972 35.37972,-35.37972c19.53964,0 35.37972,15.84008 35.37972,35.37972c0,19.53964 -15.84008,35.37972 -35.37972,35.37972z" data-paper-data="{&quot;index&quot;:null}" fill="#000000" stroke="none" stroke-width="0.5"/><path d="M211.69633,242.89731c-19.53964,0 -34.06932,-11.909 -34.06932,-31.44864c0,-19.53964 14.52964,-39.3108 34.06932,-39.3108c19.53964,0 35.37972,15.84008 35.37972,35.37972c0,19.53964 -15.84008,35.37972 -35.37972,35.37972z" data-paper-data="{&quot;index&quot;:null}" fill="#000000" stroke="none" stroke-width="0.5"/><path d="M213.56003,200.15006c0,-11.62117 0,-35.80561 0,-41.64888c0,-2.49355 2.89892,-4.94119 5.73257,-4.94119c5.89643,0 28.05807,0 39.77701,0c4.43203,0 7.37042,2.49215 7.37042,6.34509c0,11.30401 0,34.32102 0,40.47895c0,2.96945 -2.42698,6.056 -6.20055,6.056c-11.48717,0 -35.45234,0 -41.41489,0c-2.6339,0 -5.26463,-2.46421 -5.26463,-6.28998z" fill="none" stroke="#fdffff" stroke-width="7"/></g></g></svg>