<svg version="1.1" xmlns="http://www.w3.org/2000/svg" xmlns:xlink="http://www.w3.org/1999/xlink" width="117.06993" height="117.16355" viewBox="0,0,117.06993,117.16355"><g transform="translate(-181.65127,-121.63945)"><g data-paper-data="{&quot;isPaintingLayer&quot;:true}" fill-rule="nonzero" stroke-linejoin="miter" stroke-miterlimit="10" stroke-dasharray="" stroke-dashoffset="0" style="mix-blend-mode: normal"><text transform="translate(182.02094,234.09548) scale(0.36967,0.36967)" font-size="40" xml:space="preserve" fill="#00ff21" fill-rule="nonzero" stroke="#00ff21" stroke-width="2" stroke-linecap="butt" stroke-linejoin="miter" stroke-miterlimit="10" stroke-dasharray="" stroke-dashoffset="0" font-family="Sans Serif" font-weight="normal" text-anchor="start" style="mix-blend-mode: normal"><tspan x="0" dy="0">No   turbo mode</tspan></text><g><g><path d="M204.43772,176.36435l44.52154,-45.19113l-9.56398,31.20811l38.06429,-0.1916l-47.6578,47.24366l7.24456,-32.99708z" fill="#ffc83d" stroke="none" stroke-width="0" stroke-linecap="butt"/><g fill="none" stroke="#000000" stroke-width="6" stroke-linecap="round"><path d="M247.79339,131.22486l-43.72116,44.58692"/><path d="M239.56862,177.54332l-34.84706,-0.43289"/><path d="M230.0452,205.89714l8.65765,-25.97296"/><path d="M275.28145,164.77327l-43.50472,43.28828"/><path d="M241.51659,162.60886l33.33197,-0.21645"/><path d="M241.51659,160.66089l9.30698,-27.48806"/></g></g><g fill="#ff0000" stroke="none" stroke-linecap="butt"><path d="M192.10206,170.3033c0,-26.8763 21.78755,-48.66385 48.66385,-48.66385c26.8763,0 48.66385,21.78755 48.66385,48.66385c0,26.8763 -21.78755,48.66385 -48.66385,48.66385c-26.8763,0 -48.66385,-21.78755 -48.66385,-48.66385zM241.39294,211.89176c23.00939,0 41.66219,-18.6528 41.66219,-41.66219c0,-23.00939 -18.6528,-41.66219 -41.66219,-41.66219c-23.00939,0 -41.66219,18.6528 -41.66219,41.66219c0,23.00939 18.6528,41.66219 41.66219,41.66219z" stroke-width="none"/><path d="M269.21447,132.72792c2.07744,3.86184 4.74638,7.35827 7.88559,10.36804l-66.14583,66.14583c-2.33647,-3.66068 -5.2292,-6.93191 -8.55906,-9.69457z" stroke-width="0"/></g></g></g></g></svg>