<svg version="1.1" xmlns="http://www.w3.org/2000/svg" xmlns:xlink="http://www.w3.org/1999/xlink" width="498.15129" height="370.32725" viewBox="0,0,498.15129,370.32725"><g transform="translate(9.07565,5.16362)"><g data-paper-data="{&quot;isPaintingLayer&quot;:true}" fill-rule="nonzero" stroke-miterlimit="10" stroke-dasharray="" stroke-dashoffset="0" style="mix-blend-mode: normal"><path d="M-5.31124,365.16363v-370.32725h494.38688v370.32725z" fill="#000000" stroke="none" stroke-width="0" stroke-linecap="butt" stroke-linejoin="miter"/><path d="M-6.66911,160.84584v-142.57599h492.53524v142.57599z" fill="#ffffff" stroke="none" stroke-width="0" stroke-linecap="butt" stroke-linejoin="miter"/><g stroke-linejoin="miter"><g fill="#ffffff" stroke="#ffffff" stroke-width="7.5"><g><path d="M62.60239,116.338l88.83598,-90.17204l-19.08347,62.27105l75.95152,-0.38231l-95.09391,94.26756l14.45542,-65.84066z" stroke-linecap="butt"/><g stroke-linecap="round"><path d="M149.11206,26.269l-87.23894,88.96643"/><path d="M63.16875,117.82669l69.53202,0.86377"/><path d="M113.69823,175.2662l17.27503,-51.8251"/><path d="M117.15324,179.58496l86.80706,-86.3752"/><path d="M203.09655,88.45912l-66.50889,0.43189"/><path d="M155.15831,30.15588l-18.57067,54.84825"/></g></g><g stroke-linecap="butt"><path d="M37.98844,104.2441c0,-53.62758 43.47376,-97.10133 97.10134,-97.10133c53.62758,0 97.10133,43.47375 97.10133,97.10133c0,53.62758 -43.47375,97.10133 -97.10133,97.10133c-53.62758,0 -97.10133,-43.47375 -97.10133,-97.10133zM136.34093,187.22756c45.91175,0 83.13058,-37.21883 83.13058,-83.13058c0,-45.91174 -37.21884,-83.13058 -83.13058,-83.13058c-45.91174,0 -83.13058,37.21884 -83.13058,83.13058c0,45.91175 37.21884,83.13058 83.13058,83.13058z"/><path d="M207.58907,49.95598c0,0 -102.18641,102.18641 -120.9122,120.9122c-8.59859,8.59859 -18.79145,-0.50776 -28.15008,-8.27227c0,0 113.82017,-113.82017 128.13502,-128.13502c2.88172,-2.88172 20.92726,15.49509 20.92726,15.49509z"/></g></g><g fill="none" stroke="#ffffff" stroke-width="15" stroke-linecap="round"><path d="M149.11206,26.269l-87.23894,88.96643"/><path d="M63.16875,117.82669l69.53202,0.86377"/><path d="M113.69823,175.26621l17.27503,-51.8251"/><path d="M117.15324,179.58496l86.80706,-86.3752"/><path d="M203.09655,88.45912l-66.50889,0.43189"/><path d="M155.15831,30.15588l-18.57067,54.84825"/></g><g><text transform="translate(17.87309,231.53173) scale(0.73762,0.73762)" font-size="40" xml:space="preserve" fill="#00ff21" fill-rule="nonzero" stroke="#00ff21" stroke-width="2" stroke-linecap="butt" stroke-linejoin="miter" stroke-miterlimit="10" stroke-dasharray="" stroke-dashoffset="0" font-family="Sans Serif" font-weight="normal" text-anchor="start" style="mix-blend-mode: normal"><tspan x="0" dy="0">No   turbo mode</tspan></text><g><g stroke-width="10"><path d="M62.60239,116.33801l88.83598,-90.17204l-19.08347,62.27105l75.95152,-0.38231l-95.09391,94.26756l14.45542,-65.84066z" fill="#ffc83d" stroke="none" stroke-linecap="butt"/><g fill="none" stroke="#000000" stroke-linecap="round"><path d="M149.11206,26.26901l-87.23894,88.96643"/><path d="M63.16875,117.8267l69.53202,0.86377"/><path d="M113.69823,175.26622l17.27503,-51.8251"/><path d="M117.15324,179.58498l86.80706,-86.3752"/><path d="M203.09655,88.45913l-66.50889,0.43189"/><path d="M136.58765,85.00414l18.57067,-54.84825"/></g></g><g fill="#ff0000" stroke="none" stroke-linecap="butt"><path d="M37.98844,104.24411c0,-53.62758 43.47376,-97.10133 97.10134,-97.10133c53.62758,0 97.10133,43.47375 97.10133,97.10133c0,53.62758 -43.47375,97.10133 -97.10133,97.10133c-53.62758,0 -97.10133,-43.47375 -97.10133,-97.10133zM136.34093,187.22757c45.91175,0 83.13058,-37.21883 83.13058,-83.13058c0,-45.91174 -37.21884,-83.13058 -83.13058,-83.13058c-45.91174,0 -83.13058,37.21884 -83.13058,83.13058c0,45.91175 37.21884,83.13058 83.13058,83.13058z" stroke-width="NaN"/><path d="M191.85458,29.26814c4.14522,7.70572 9.47068,14.68231 15.7345,20.68785l-131.98397,131.98397c-4.66207,-7.30433 -10.43408,-13.83157 -17.07831,-19.34404z" stroke-width="0"/></g></g></g></g><text transform="translate(3.20628,356.7743) scale(0.20892,0.20892)" font-size="40" xml:space="preserve" fill="#ffffff" fill-rule="nonzero" stroke="none" stroke-width="1" stroke-linecap="butt" stroke-linejoin="miter" stroke-miterlimit="10" stroke-dasharray="" stroke-dashoffset="0" font-family="Sans Serif" font-weight="normal" text-anchor="start" style="mix-blend-mode: normal"><tspan x="0" dy="0">Program created by @Pikurin</tspan></text><text transform="translate(246.38785,51.29069) scale(0.63374,0.63374)" font-size="40" xml:space="preserve" fill="#ff0000" fill-rule="nonzero" stroke="#ff0000" stroke-width="3" stroke-linecap="butt" stroke-linejoin="miter" stroke-miterlimit="10" stroke-dasharray="" stroke-dashoffset="0" font-family="Handwriting" font-weight="normal" text-anchor="start" style="mix-blend-mode: normal"><tspan x="0" dy="0">ターボモードを検知</tspan><tspan x="0" dy="46.150000000000006px">しました。</tspan><tspan x="0" dy="46.150000000000006px">Turbo mode has </tspan><tspan x="0" dy="46.150000000000006px">been detected.</tspan></text><path d="M-9.07565,330.64146v-83.32363h492.53524v83.32363z" fill="#ffffff" stroke="none" stroke-width="0" stroke-linecap="butt" stroke-linejoin="miter"/><text transform="translate(8.20628,280.33866) scale(0.63374,0.63374)" font-size="40" xml:space="preserve" fill="#ff0000" fill-rule="nonzero" stroke="#ff0000" stroke-width="3" stroke-linecap="butt" stroke-linejoin="miter" stroke-miterlimit="10" stroke-dasharray="" stroke-dashoffset="0" font-family="Handwriting" font-weight="normal" text-anchor="start" style="mix-blend-mode: normal"><tspan x="0" dy="0">ターボモードを解除してください。</tspan><tspan x="0" dy="46.150000000000006px">Please release turbo mode.</tspan></text><text transform="translate(385.38518,323.37444) scale(0.39235,0.39235)" font-size="40" xml:space="preserve" fill="#ff0000" fill-rule="nonzero" stroke="#ff0000" stroke-width="3" stroke-linecap="butt" stroke-linejoin="miter" stroke-miterlimit="10" stroke-dasharray="" stroke-dashoffset="0" font-family="Handwriting" font-weight="normal" text-anchor="start" style="mix-blend-mode: normal"><tspan x="0" dy="0">Shift  +  </tspan></text><g fill="#4cbf56" stroke="#45993d" stroke-linecap="round" stroke-linejoin="round"><path d="M441.70047,312.7399c2.282,-1.6984 5.408,-1.6984 7.69,0v0c2.282,1.69841 5.408,1.69841 7.69,0v10.4c-2.282,1.6984 -5.408,1.6984 -7.69,0v0c-2.282,-1.6984 -5.408,-1.6984 -7.69,0" stroke-width="1"/><path d="M441.70047,311.4899v16" stroke-width="1.5"/></g></g></g></svg>