<svg version="1.1" xmlns="http://www.w3.org/2000/svg" xmlns:xlink="http://www.w3.org/1999/xlink" width="569.00001" height="356.78188" viewBox="0,0,569.00001,356.78188"><g transform="translate(15,-87.71812)"><g data-paper-data="{&quot;isPaintingLayer&quot;:true}" fill="none" fill-rule="nonzero" stroke="#ffffff" stroke-width="4" stroke-linecap="butt" stroke-linejoin="miter" stroke-miterlimit="10" stroke-dasharray="" stroke-dashoffset="0" style="mix-blend-mode: normal"><path d="M-13,442.50001v-157c0,0 96.94619,0 165.52694,0c0.58929,0 -0.95083,-72.8395 0.4326,-72.8395c3.50635,0 101.39036,72.8395 104.13731,72.8395c6.82513,0 13.77329,0 20.81129,0c123.26723,0 274.09187,0 274.09187,0v157z"/><path d="M151.55389,147.69243v-57.9743h347.8458v57.9743c0,0 -82.50042,0 -156.08465,0c-1.39213,0 1.15276,63.92038 -0.94608,63.92038c-2.23371,0 -88.92252,-63.92038 -89.73167,-63.92038c-41.09006,0 -101.08339,0 -101.08339,0z"/></g></g></svg>